<?xml version="1.0" encoding="UTF-8" standalone="no"?>
<!-- Created with Inkscape (http://www.inkscape.org/) -->

<svg
   xmlns:dc="http://purl.org/dc/elements/1.1/"
   xmlns:cc="http://creativecommons.org/ns#"
   xmlns:rdf="http://www.w3.org/1999/02/22-rdf-syntax-ns#"
   xmlns:svg="http://www.w3.org/2000/svg"
   xmlns="http://www.w3.org/2000/svg"
   xmlns:xlink="http://www.w3.org/1999/xlink"
   xmlns:sodipodi="http://sodipodi.sourceforge.net/DTD/sodipodi-0.dtd"
   xmlns:inkscape="http://www.inkscape.org/namespaces/inkscape"
   id="svg2816"
   version="1.1"
   inkscape:version="0.47 r22583"
   width="256"
   height="256"
   sodipodi:docname="drpodder_icon.png">
  <metadata
     id="metadata2822">
    <rdf:RDF>
      <cc:Work
         rdf:about="">
        <dc:format>image/svg+xml</dc:format>
        <dc:type
           rdf:resource="http://purl.org/dc/dcmitype/StillImage" />
        <dc:title></dc:title>
      </cc:Work>
    </rdf:RDF>
  </metadata>
  <defs
     id="defs2820">
    <linearGradient
       inkscape:collect="always"
       id="linearGradient3604">
      <stop
         style="stop-color:#000000;stop-opacity:1;"
         offset="0"
         id="stop3606" />
      <stop
         style="stop-color:#000000;stop-opacity:0;"
         offset="1"
         id="stop3608" />
    </linearGradient>
    <inkscape:perspective
       sodipodi:type="inkscape:persp3d"
       inkscape:vp_x="0 : 0.5 : 1"
       inkscape:vp_y="0 : 1000 : 0"
       inkscape:vp_z="1 : 0.5 : 1"
       inkscape:persp3d-origin="0.5 : 0.33333333 : 1"
       id="perspective2824" />
    <linearGradient
       inkscape:collect="always"
       xlink:href="#linearGradient3604"
       id="linearGradient3610"
       x1="35.003884"
       y1="199.8644"
       x2="233.47069"
       y2="199.8644"
       gradientUnits="userSpaceOnUse" />
  </defs>
  <sodipodi:namedview
     pagecolor="#ffffff"
     bordercolor="#666666"
     borderopacity="1"
     objecttolerance="10"
     gridtolerance="10"
     guidetolerance="10"
     inkscape:pageopacity="0"
     inkscape:pageshadow="2"
     inkscape:window-width="1366"
     inkscape:window-height="752"
     id="namedview2818"
     showgrid="false"
     inkscape:zoom="1.84375"
     inkscape:cx="45.823321"
     inkscape:cy="136.14252"
     inkscape:window-x="-8"
     inkscape:window-y="-8"
     inkscape:window-maximized="1"
     inkscape:current-layer="svg2816" />
  <image
     xlink:href="file:///C:/app/prg/webossdk/src/guttenpodder/src/images/drpodder_icon.png"
     width="256"
     height="256"
     id="image2826"
     x="0"
     y="0" />
  <path
     style="fill:#fafd2f;fill-opacity:0.28461537;stroke:#060600;stroke-width:10;stroke-linecap:round;stroke-miterlimit:4;stroke-opacity:1;stroke-dasharray:1.00000004, 1.00000004;stroke-dashoffset:0"
     id="path3620"
     d="m 47.118704,158.47919 c 0.613818,0.41949 1.304963,0.68553 1.990303,0.96121 0.69485,0.28883 1.42833,0.48382 2.101779,0.82089 0.549269,0.23891 1.085731,0.50409 1.621913,0.77036 0.613301,0.20397 1.227626,0.41117 1.857847,0.55958 0.897623,0.30952 1.827482,0.4844 2.745959,0.71165 0.671634,0.12872 1.306811,0.38341 1.98197,0.49193 0.892508,0.16449 1.762478,0.42153 2.623074,0.70671 0.982838,0.30288 1.957195,0.63574 2.925812,0.98263 1.141033,0.45494 2.348536,0.7014 3.520696,1.06326 1.28462,0.44954 2.574519,0.88152 3.860707,1.32695 1.334616,0.43071 2.644847,0.93064 3.971952,1.38343 1.248691,0.38705 2.441081,0.92249 3.619132,1.48343 0.86176,0.39975 1.718087,0.81112 2.581046,1.20955 1.094497,0.50161 2.19232,0.9968 3.293587,1.48349 1.133595,0.40181 2.149762,1.03007 3.180707,1.63292 1.236964,0.53054 2.488707,1.02747 3.740139,1.52376 1.248014,0.54768 2.544891,0.96903 3.828157,1.42464 1.913765,0.63072 3.901756,0.99268 5.852686,1.4868 2.43496,0.64588 4.89712,1.17723 7.36243,1.69126 1.49214,0.36461 2.99786,0.67319 4.46301,1.13768 1.69991,0.6013 3.46344,0.94565 5.23711,1.23702 1.98288,0.35849 3.98292,0.64388 5.93698,1.14192 1.70083,0.47838 3.4518,0.71046 5.19191,0.98984 1.21007,0.18298 2.41759,0.36727 3.61764,0.60779 1.39791,0.31263 2.82327,0.47125 4.23856,0.68294 0.95376,0.0659 1.87324,0.30962 2.8041,0.50319 1.90361,0.36621 3.78072,0.84799 5.66609,1.29548 2.13045,0.52837 4.31355,0.7693 6.46472,1.18425 1.62991,0.25721 3.24427,0.59556 4.86573,0.89896 1.17912,0.31102 2.39771,0.44445 3.56964,0.77857 0.78053,0.26144 1.59914,0.4193 2.37549,0.68922 0.44209,0.17402 0.82877,0.41494 1.30146,0.50609 0.4864,0.0588 0.93823,0.30914 1.3707,0.53186 0.64033,0.23919 1.31079,0.37996 1.93916,0.65806 0.76393,0.32 1.54906,0.588 2.33802,0.84036 1.27534,0.32917 2.59298,0.44482 3.89141,0.65167 1.7239,0.20332 3.44144,0.44781 5.15504,0.72592 1.57918,0.21486 3.14911,0.507 4.70111,0.86902 1.19128,0.32495 2.37031,0.62639 3.597,0.78694 1.99927,0.13301 3.96919,0.49946 5.94614,0.80423 2.3904,0.40614 4.78489,0.78738 7.17508,1.19497 1.53458,0.22237 3.05282,0.52094 4.57453,0.81245 0.23646,0.0362 0.47229,0.0768 0.7094,0.1085 0.51881,0.0694 0.98305,0.0988 1.50024,0.18739 0.90665,0.15528 1.80111,0.39523 2.69223,0.61941 1.55416,0.31713 3.07467,0.77332 4.62189,1.11858 0.64729,0.0641 1.2604,0.2887 1.90031,0.38621 0.64024,0.10153 1.2733,0.23203 1.92062,0.29357 0.62172,-0.004 1.21951,0.0884 1.82672,0.20466 0.50465,0.21688 0.98486,0.45244 1.52611,0.56884 0.25866,0.0489 0.52136,0.0638 0.78348,0.0796 0,0 -3.25305,2.32144 -3.25305,2.32144 l 0,0 c -0.27582,-0.0301 -0.55211,-0.0605 -0.82085,-0.13347 -0.51993,-0.15148 -0.99408,-0.41169 -1.51711,-0.54726 -0.59126,-0.11657 -1.18586,-0.14846 -1.78638,-0.19142 -0.65539,-0.0776 -1.30045,-0.2149 -1.95397,-0.30593 -0.62359,-0.13067 -1.23307,-0.32511 -1.85958,-0.44527 -1.5038,-0.41415 -2.99199,-0.8837 -4.52544,-1.18343 -1.63452,-0.3896 -3.28158,-0.65629 -4.94892,-0.85871 -1.49022,-0.28505 -2.97651,-0.59046 -4.46555,-0.88164 -2.38637,-0.43283 -4.78809,-0.78325 -7.18053,-1.18089 -2.00128,-0.30368 -4.00112,-0.61447 -6.02371,-0.74068 -1.2409,-0.16904 -2.44903,-0.45124 -3.6529,-0.79484 -1.5246,-0.36442 -3.05259,-0.71573 -4.61252,-0.89513 -1.72928,-0.26388 -3.46145,-0.49935 -5.2,-0.69303 -1.32592,-0.19878 -2.67108,-0.312 -3.96757,-0.66895 -0.80979,-0.24385 -1.61758,-0.5077 -2.39202,-0.84916 -0.64869,-0.25391 -1.34145,-0.37416 -1.97811,-0.65798 -0.43227,-0.19424 -0.85173,-0.40727 -1.33025,-0.4603 -0.45569,-0.1376 -0.85279,-0.3884 -1.30107,-0.54401 -0.76976,-0.24643 -1.54619,-0.47665 -2.32348,-0.69788 -1.14768,-0.30006 -2.31948,-0.50293 -3.46537,-0.81288 -1.62316,-0.30979 -3.25215,-0.58466 -4.87429,-0.8981 -2.12263,-0.44152 -4.27447,-0.73447 -6.38166,-1.25522 -1.9343,-0.43269 -3.86659,-0.87429 -5.82765,-1.17133 -0.92038,-0.18363 -1.83478,-0.39371 -2.76787,-0.50736 -1.41605,-0.2356 -2.83898,-0.42873 -4.25138,-0.68678 -1.18337,-0.20246 -2.36192,-0.43106 -3.54189,-0.65241 -1.75122,-0.30467 -3.5283,-0.49155 -5.23829,-0.9998 -1.93001,-0.51844 -3.90208,-0.83686 -5.87578,-1.13996 -1.80156,-0.28741 -3.57692,-0.67677 -5.31382,-1.24424 -1.44982,-0.40532 -2.91509,-0.75496 -4.36207,-1.17145 -2.45956,-0.54938 -4.91806,-1.10479 -7.366774,-1.70084 -1.989119,-0.47037 -4.005823,-0.83892 -5.956997,-1.45726 -1.29683,-0.43006 -2.594263,-0.85657 -3.831463,-1.44296 -1.281108,-0.49966 -2.584207,-0.95226 -3.82976,-1.53626 -1.015805,-0.59185 -2.00928,-1.22571 -3.129614,-1.61259 -1.112429,-0.48373 -2.219837,-0.97923 -3.331912,-1.46372 -0.867481,-0.38528 -1.714982,-0.80273 -2.561588,-1.23092 -1.161943,-0.55008 -2.337294,-1.07703 -3.563918,-1.46868 -1.327798,-0.46491 -2.657653,-0.91853 -3.98914,-1.37186 -1.283203,-0.44322 -2.563973,-0.89386 -3.85532,-1.31185 -1.185017,-0.34943 -2.398898,-0.60777 -3.550293,-1.06349 -0.975214,-0.33229 -1.951707,-0.66127 -2.936368,-0.96393 -0.860525,-0.26951 -1.731002,-0.50609 -2.623596,-0.64374 -0.668286,-0.13673 -1.309599,-0.37634 -1.976019,-0.52443 -0.920357,-0.22339 -1.837,-0.45164 -2.748411,-0.71033 -0.657658,-0.16834 -1.329629,-0.33124 -1.949688,-0.6096 -0.522046,-0.27688 -1.056208,-0.53286 -1.5962,-0.77238 -0.674479,-0.30158 -1.380123,-0.53108 -2.060826,-0.81876 -0.724343,-0.28967 -1.449846,-0.58937 -2.112187,-1.00651 0,0 3.401628,-2.1515 3.401628,-2.1515 z" />
  <path
     style="fill:#aa0000;fill-opacity:1;stroke:#fc0000;stroke-width:10;stroke-linecap:round;stroke-miterlimit:4;stroke-opacity:1;stroke-dasharray:1.00000004, 1.00000004;stroke-dashoffset:0"
     id="path3622"
     d="m 33.513977,230.07009 c 1.591744,-1.14376 3.342531,-2.05793 5.151773,-2.79909 0.727905,-0.31075 1.447371,-0.65096 2.196456,-0.91134 0.611926,-0.23532 1.263171,-0.34429 1.883668,-0.54528 1.55048,-0.41029 4.067061,-2.05405 -1.887512,1.33453 9.963059,-5.75135 0.268947,-0.154 0.458882,-0.26818 1.537051,-0.92403 2.9424,-1.91666 4.600901,-2.51331 0.92684,-0.36206 1.873267,-0.6582 2.79716,-1.02802 1.045666,-0.37315 2.073336,-0.79903 3.094288,-1.23541 0.411834,-0.19742 0.865326,-0.28705 1.276675,-0.48519 0.109467,-0.0527 0.210331,-0.12172 0.315497,-0.18258 0.103144,-0.0636 0.414633,-0.25107 0.309431,-0.1909 -1.018982,0.5828 -2.033951,1.17258 -3.050927,1.75887 1.256883,-0.71256 2.513094,-1.42631 3.77065,-2.13768 2.102198,-1.18918 -4.221073,2.50521 -2.148218,1.21823 0.134287,-0.0834 0.26777,-0.16817 0.404555,-0.24738 1.274404,-0.73797 2.552589,-1.46939 3.828883,-2.20409 0.16507,-0.0902 0.658161,-0.36468 0.49521,-0.27068 -0.96411,0.55614 -1.928161,1.11249 -2.89879,1.65717 -0.153108,0.0859 0.293974,-0.19232 0.445733,-0.2806 1.879613,-1.09338 3.083053,-1.88869 4.84259,-2.64786 1.473623,-0.51619 2.907575,-1.13089 4.399461,-1.59415 1.411481,-0.36825 2.749019,-0.95019 4.091874,-1.5084 1.196566,-0.55317 2.41394,-1.05972 3.634773,-1.55889 1.716865,-0.54535 3.40909,-1.15599 5.107511,-1.75555 1.070388,-0.41269 2.161144,-0.76585 3.255923,-1.10833 1.705628,-0.44874 3.37196,-1.02623 5.050795,-1.5639 2.692508,-0.86253 5.383191,-1.73811 8.106732,-2.49784 0.433296,-0.1132 0.865601,-0.23028 1.299889,-0.33962 0.906262,-0.22818 1.53449,-0.35102 2.418721,-0.61996 0.945239,-0.2875 1.848856,-0.68149 2.757066,-1.06584 1.835223,-0.80166 3.751273,-1.38554 5.639693,-2.04277 1.64117,-0.57561 3.32327,-1.02191 4.98058,-1.54871 1.73522,-0.5857 3.47369,-1.14155 5.16494,-1.84754 0.9732,-0.37843 1.88216,-0.89762 2.83458,-1.3231 1.19942,-0.5123 2.41113,-0.9943 3.62094,-1.48302 1.96146,-0.75693 3.91342,-1.53995 5.90502,-2.21496 1.20323,-0.45645 2.44529,-0.8156 3.64019,-1.29438 0.54547,-0.21856 1.07853,-0.46693 1.61978,-0.69573 1.91533,-0.7566 3.87387,-1.40415 5.82386,-2.06634 3.17872,-1.22159 6.39469,-2.34025 9.64034,-3.36952 3.09473,-0.89988 6.15506,-1.90873 9.20032,-2.96277 2.38232,-0.855 4.68942,-1.90523 6.95149,-3.03718 1.9987,-0.99904 4.07612,-1.82303 6.18574,-2.55339 1.27072,-0.40562 2.58561,-0.62276 3.86497,-0.99804 1.61412,-0.50578 3.14742,-1.23509 4.71547,-1.86642 1.55031,-0.64041 3.08217,-1.32365 4.62335,-1.98516 1.12884,-0.60953 2.35496,-0.98967 3.53324,-1.47907 1.43664,-0.8752 -0.47707,0.2948 -2.81894,1.59559 -0.0891,0.0495 0.16505,-0.11982 0.24509,-0.18296 0.21856,-0.17238 0.423,-0.3575 0.62088,-0.55277 0.40853,-0.47448 0.8672,-0.89404 1.35106,-1.28956 0.43219,-0.32449 0.84506,-0.67026 1.25655,-1.01983 0.21267,-0.16975 0.42799,-0.34713 0.6652,-0.48275 1.22166,-0.69849 2.44688,-1.39075 3.67445,-2.07878 0.0819,-0.0459 0.33485,-0.16983 0.25356,-0.12282 -1.06165,0.61395 -2.13015,1.21599 -3.19522,1.82398 1.61766,-0.90849 3.15666,-2.05288 4.91448,-2.69498 0.55483,-0.28849 1.08538,-0.61406 1.67052,-0.83943 0.7332,-0.35742 1.51952,-0.61513 2.28335,-0.90763 1.00454,-0.34629 2.0117,-0.6767 3.05759,-0.87145 0.96267,-0.0645 1.90639,-0.14113 2.84953,-0.35663 1.12263,-0.19999 2.2117,-0.5184 3.29854,-0.85649 0.84639,-0.28371 1.75082,-0.34676 2.57775,-0.68855 1.24127,-0.57628 3.09871,-1.69292 -2.70746,1.57733 -0.14508,0.0817 0.26452,-0.20404 0.40912,-0.28658 1.21581,-0.69395 2.43822,-1.37626 3.65733,-2.06439 0.5108,-0.20791 1.00269,-0.45751 1.50983,-0.67415 0.53309,-0.20812 1.10307,-0.25333 1.66883,-0.27968 0.50113,0.0408 0.96809,-0.13013 1.45724,-0.20371 0.41382,-0.20766 0.85086,-0.35718 1.2693,-0.55329 0.5384,-0.10483 0.95548,-0.44605 1.44336,-0.66283 -1.07758,0.61683 -2.15387,1.23593 -3.23274,1.8505 -0.0649,0.037 0.12576,-0.0806 0.19063,-0.11758 1.2117,-0.69026 2.41663,-1.39274 3.63895,-2.06401 0.0679,-0.0373 0.1531,-0.0296 0.2252,-0.0581 0.13056,-0.0516 0.24884,-0.13079 0.37828,-0.18513 -1.09189,0.62179 -2.18255,1.24573 -3.27566,1.86536 -0.0576,0.0327 0.11258,-0.0699 0.16911,-0.10441 0.12923,-0.0789 0.25307,-0.16675 0.38465,-0.24169 1.21563,-0.69231 2.43832,-1.37217 3.65373,-2.06486 0.0659,-0.0376 0.1265,-0.0838 0.18976,-0.12566 0.43161,-0.21502 0.91442,-0.28959 1.37762,-0.41482 0.74396,-0.13965 1.45597,-0.36739 2.17489,-0.59964 0.66544,-0.14118 1.28275,-0.42896 1.94664,-0.57215 0.5179,-0.0711 1.03966,-0.072 1.51668,-0.30579 0.29242,-0.12471 0.14365,-0.0687 0.44634,-0.16787 0,0 -3.15787,2.4637 -3.15787,2.4637 l 0,0 c -0.29327,0.11319 -0.14519,0.0578 -0.44429,0.16599 -0.50842,0.12058 -1.02767,0.15299 -1.536,0.27217 -0.63303,0.18218 -1.25691,0.3956 -1.89357,0.56605 -0.73173,0.24034 -1.47851,0.41899 -2.22297,0.61497 -0.45642,0.13071 -0.92406,0.22307 -1.32432,0.49629 -1.33622,0.63468 -0.15273,0.0795 3.01332,-1.76619 0.0656,-0.0382 -0.13467,0.0699 -0.20201,0.10489 -0.21036,0.15352 -0.13143,0.10494 -0.3475,0.22907 -1.20457,0.69204 -2.40973,1.38307 -3.6146,2.07461 -3.69843,1.68173 10.64215,-5.93809 -1.17976,0.58311 -0.46832,0.25912 -0.95186,0.45989 -1.45457,0.64395 -0.43927,0.17358 -0.86086,0.41014 -1.33268,0.48307 -0.48869,0.0957 -0.97293,0.17113 -1.47344,0.16507 -0.5448,0.0509 -1.08332,0.14402 -1.57946,0.3881 -0.5027,0.23588 -1.01436,0.45122 -1.51869,0.68348 1.07123,-0.62109 2.1449,-1.23799 3.21369,-1.86326 0.14248,-0.0834 -0.28284,0.17028 -0.42465,0.25475 -1.20563,0.71812 -2.41144,1.43608 -3.62608,2.13885 -0.0864,0.05 -0.44364,0.1701 -0.52476,0.19861 -0.8432,0.23715 -1.71202,0.37042 -2.54511,0.64576 -1.08798,0.33079 -2.18895,0.60256 -3.30576,0.81853 -0.95981,0.19082 -1.92667,0.24998 -2.89387,0.38281 -1.01911,0.21378 -2.0086,0.5371 -2.98326,0.90199 -0.77848,0.30876 -1.56845,0.59114 -2.32329,0.95538 -0.56499,0.26707 -1.09647,0.60123 -1.67808,0.83389 -0.27399,0.12004 -0.54103,0.24549 -0.8052,0.38579 -0.0775,0.0412 -0.30825,0.16787 -0.23247,0.1236 3.72278,-2.17476 4.22307,-2.48344 2.97972,-1.72224 -11.78411,6.80833 2.4432,-1.47137 -1.41738,0.8061 -0.41879,0.35454 -0.82369,0.71597 -1.26076,1.04781 -0.50574,0.34485 -0.97175,0.7547 -1.36649,1.22307 -1.28659,1.44331 -3.08725,2.33704 -4.84046,3.11613 -1.18254,0.42575 -2.3443,0.89569 -3.47366,1.45053 -1.50893,0.65344 -3.02579,1.2872 -4.54581,1.91444 -1.60436,0.66355 -3.17607,1.42598 -4.84582,1.91438 -1.2576,0.34825 -2.55311,0.53993 -3.78935,0.96692 -2.0797,0.72182 -4.12857,1.53002 -6.08912,2.5377 -2.26424,1.10522 -4.56209,2.15873 -6.94939,2.97246 -3.04427,1.00506 -6.08867,2.00953 -9.16172,2.9239 -3.26406,1.0346 -6.50599,2.13845 -9.68449,3.41554 -1.97964,0.69346 -3.96508,1.37814 -5.90973,2.16526 -1.70833,0.71444 -3.44442,1.3487 -5.20758,1.91631 -2.02444,0.70176 -4.00969,1.50821 -5.99517,2.31262 -1.22067,0.49907 -2.45198,0.97296 -3.64859,1.52858 -0.91912,0.44016 -1.82755,0.90723 -2.78526,1.26063 -1.69812,0.67248 -3.44159,1.21111 -5.16662,1.8091 -1.65887,0.51703 -3.33616,0.97577 -4.97518,1.55497 -1.89232,0.62224 -3.783248,1.24971 -5.609355,2.0519 -0.601565,0.24574 -1.163543,0.48581 -1.780118,0.69447 -1.514232,0.51246 -3.098287,0.77374 -4.630483,1.2232 -2.733754,0.77632 -5.444159,1.63377 -8.137352,2.54073 -1.725849,0.57258 -3.445128,1.16461 -5.192453,1.66942 -1.076376,0.34426 -2.149354,0.6974 -3.210324,1.08693 -1.690177,0.57871 -3.386217,1.14225 -5.065118,1.75169 -1.238069,0.52469 -2.470188,1.06278 -3.699376,1.60719 -1.324706,0.53609 -2.660151,1.04583 -4.038983,1.4287 -1.50079,0.50019 -2.964254,1.10471 -4.438514,1.67686 -0.175457,0.0798 -0.352488,0.15631 -0.526372,0.23952 -0.166424,0.0796 -0.652607,0.34378 -0.494351,0.24894 0.962539,-0.57683 1.934346,-1.13816 2.90827,-1.69555 0.153265,-0.0877 -0.293621,0.19663 -0.445791,0.28623 -3.105908,1.82883 -2.641775,1.56507 -4.31151,2.50074 0.968481,-0.55985 1.938729,-1.11665 2.905443,-1.67955 0.136051,-0.0792 -0.279259,0.14601 -0.413371,0.22847 -0.136607,0.084 -0.259689,0.1891 -0.397928,0.27038 -1.258244,0.7398 -2.524248,1.46636 -3.790542,2.1923 -0.138658,0.0795 -0.561547,0.30528 -0.424034,0.22383 1.001414,-0.59319 2.010777,-1.17284 3.016166,-1.75926 -1.926711,1.11761 -3.577138,2.2627 -5.633332,2.96032 -1.020192,0.42466 -2.046165,0.83617 -3.084228,1.2153 -0.942269,0.36424 -1.902513,0.68011 -2.838289,1.06155 -0.320581,0.13861 -0.369445,0.15135 -0.660137,0.30575 -0.0938,0.0498 -0.369647,0.2094 -0.277855,0.15597 1.058427,-0.61616 4.226191,-2.47722 3.177792,-1.84415 -1.03694,0.62615 -8.075277,4.68505 -0.450619,0.28137 -1.755812,1.00162 -3.138679,2.05176 -5.00728,2.53313 -0.62436,0.1537 -1.237842,0.34072 -1.844825,0.5536 -0.738097,0.28839 -1.460469,0.61649 -2.187854,0.93061 -0.324821,0.14543 -0.652009,0.28748 -0.974987,0.43681 -0.0932,0.0431 -0.364987,0.1879 -0.276553,0.13571 2.301857,-1.3584 4.283961,-2.46656 2.954228,-1.72214 0,0 -3.740028,1.48735 -3.740028,1.48735 z" />
</svg>
